<svg width="22" height="20" viewBox="0 0 22 20" fill="none" xmlns="http://www.w3.org/2000/svg">
<g filter="url(#filter0_d_57_1112)">
<path d="M11 4.875C10.1842 4.875 9.38663 5.11693 8.70827 5.57019C8.02992 6.02345 7.50121 6.66769 7.189 7.42143C6.87679 8.17518 6.7951 9.00458 6.95426 9.80475C7.11343 10.6049 7.50629 11.3399 8.08318 11.9168C8.66008 12.4937 9.39508 12.8866 10.1953 13.0457C10.9954 13.2049 11.8248 13.1232 12.5786 12.811C13.3323 12.4988 13.9766 11.9701 14.4298 11.2917C14.8831 10.6134 15.125 9.81585 15.125 9C15.1239 7.90633 14.6889 6.85778 13.9156 6.08444C13.1422 5.3111 12.0937 4.87614 11 4.875ZM11 11.75C10.4561 11.75 9.92442 11.5887 9.47218 11.2865C9.01995 10.9844 8.66747 10.5549 8.45933 10.0524C8.25119 9.54988 8.19673 8.99695 8.30284 8.4635C8.40895 7.93005 8.67086 7.44005 9.05546 7.05546C9.44005 6.67086 9.93005 6.40895 10.4635 6.30284C10.9969 6.19673 11.5499 6.25119 12.0524 6.45933C12.5549 6.66747 12.9844 7.01995 13.2865 7.47218C13.5887 7.92442 13.75 8.4561 13.75 9C13.75 9.72935 13.4603 10.4288 12.9445 10.9445C12.4288 11.4603 11.7293 11.75 11 11.75ZM15.125 0.0625H6.875C5.59906 0.0638649 4.37578 0.571333 3.47356 1.47356C2.57133 2.37578 2.06386 3.59906 2.0625 4.875V13.125C2.06386 14.4009 2.57133 15.6242 3.47356 16.5264C4.37578 17.4287 5.59906 17.9361 6.875 17.9375H15.125C16.4009 17.9361 17.6242 17.4287 18.5264 16.5264C19.4287 15.6242 19.9361 14.4009 19.9375 13.125V4.875C19.9361 3.59906 19.4287 2.37578 18.5264 1.47356C17.6242 0.571333 16.4009 0.0638649 15.125 0.0625ZM18.5625 13.125C18.5625 14.0367 18.2003 14.911 17.5557 15.5557C16.911 16.2003 16.0367 16.5625 15.125 16.5625H6.875C5.96332 16.5625 5.08898 16.2003 4.44432 15.5557C3.79966 14.911 3.4375 14.0367 3.4375 13.125V4.875C3.4375 3.96332 3.79966 3.08898 4.44432 2.44432C5.08898 1.79966 5.96332 1.4375 6.875 1.4375H15.125C16.0367 1.4375 16.911 1.79966 17.5557 2.44432C18.2003 3.08898 18.5625 3.96332 18.5625 4.875V13.125ZM16.5 4.53125C16.5 4.73521 16.4395 4.93459 16.3262 5.10418C16.2129 5.27377 16.0518 5.40595 15.8634 5.484C15.675 5.56205 15.4676 5.58248 15.2676 5.54269C15.0675 5.50289 14.8838 5.40468 14.7395 5.26045C14.5953 5.11623 14.4971 4.93248 14.4573 4.73244C14.4175 4.53239 14.4379 4.32504 14.516 4.13661C14.5941 3.94817 14.7262 3.78711 14.8958 3.6738C15.0654 3.56048 15.2648 3.5 15.4688 3.5C15.7423 3.5 16.0046 3.60865 16.198 3.80205C16.3913 3.99544 16.5 4.25775 16.5 4.53125Z" fill="black"/>
</g>
<defs>
<filter id="filter0_d_57_1112" x="-1.9375" y="0.0625" width="25.875" height="25.875" filterUnits="userSpaceOnUse" color-interpolation-filters="sRGB">
<feFlood flood-opacity="0" result="BackgroundImageFix"/>
<feColorMatrix in="SourceAlpha" type="matrix" values="0 0 0 0 0 0 0 0 0 0 0 0 0 0 0 0 0 0 127 0" result="hardAlpha"/>
<feOffset dy="4"/>
<feGaussianBlur stdDeviation="2"/>
<feComposite in2="hardAlpha" operator="out"/>
<feColorMatrix type="matrix" values="0 0 0 0 0 0 0 0 0 0 0 0 0 0 0 0 0 0 0.25 0"/>
<feBlend mode="normal" in2="BackgroundImageFix" result="effect1_dropShadow_57_1112"/>
<feBlend mode="normal" in="SourceGraphic" in2="effect1_dropShadow_57_1112" result="shape"/>
</filter>
</defs>
</svg>
